<svg width="145" height="145" viewBox="0 0 145 145" fill="none" xmlns="http://www.w3.org/2000/svg">
<path fill-rule="evenodd" clip-rule="evenodd" d="M72.0923 132.169C105.272 132.169 132.169 105.271 132.169 72.0919C132.169 38.9125 105.272 12.0153 72.0923 12.0153C38.9128 12.0153 12.0156 38.9125 12.0156 72.0919C12.0156 81.7023 14.2722 90.7856 18.2844 98.8409C19.3506 100.982 19.7055 103.428 19.0874 105.739L15.5091 119.112C13.9558 124.917 19.267 130.228 25.0724 128.675L38.4457 125.097C40.7559 124.479 43.2026 124.834 45.3433 125.9C53.3986 129.912 62.4819 132.169 72.0923 132.169ZM48.0616 79.6015C45.5731 79.6015 43.5559 81.6188 43.5559 84.1073C43.5559 86.5957 45.5731 88.613 48.0616 88.613H81.1037C83.5922 88.613 85.6095 86.5957 85.6095 84.1073C85.6095 81.6188 83.5922 79.6015 81.1037 79.6015H48.0616ZM43.5559 63.0805C43.5559 60.592 45.5731 58.5747 48.0616 58.5747H96.1229C98.6114 58.5747 100.629 60.592 100.629 63.0805C100.629 65.5689 98.6114 67.5862 96.1229 67.5862H48.0616C45.5731 67.5862 43.5559 65.5689 43.5559 63.0805Z" fill="#EFF3FD"/>
</svg>
