<svg width="145" height="145" viewBox="0 0 145 145" fill="none" xmlns="http://www.w3.org/2000/svg">
<path fill-rule="evenodd" clip-rule="evenodd" d="M72.0916 132.169C38.9122 132.169 12.015 105.271 12.015 72.092C12.015 38.9125 38.9122 12.0153 72.0916 12.0153C105.271 12.0153 132.168 38.9125 132.168 72.092C132.168 81.7023 129.912 90.7856 125.9 98.8409C124.833 100.982 124.478 103.428 125.097 105.739L128.675 119.112C130.228 124.917 124.917 130.228 119.112 128.675L105.738 125.097C103.428 124.479 100.981 124.834 98.8406 125.9C90.7853 129.912 81.702 132.169 72.0916 132.169ZM96.1223 79.6015C98.6108 79.6015 100.628 81.6188 100.628 84.1073C100.628 86.5957 98.6108 88.613 96.1223 88.613H63.0802C60.5917 88.613 58.5744 86.5957 58.5744 84.1073C58.5744 81.6188 60.5917 79.6015 63.0802 79.6015H96.1223ZM100.628 63.0805C100.628 60.592 98.6108 58.5747 96.1223 58.5747H48.061C45.5725 58.5747 43.5552 60.592 43.5552 63.0805C43.5552 65.5689 45.5725 67.5862 48.061 67.5862H96.1223C98.6108 67.5862 100.628 65.5689 100.628 63.0805Z" fill="#A0B5FF" fill-opacity="0.55"/>
</svg>
